<?xml version="1.0" encoding="utf-8"?>
<!-- Generator: Adobe Illustrator 15.0.0, SVG Export Plug-In . SVG Version: 6.00 Build 0)  -->
<!DOCTYPE svg PUBLIC "-//W3C//DTD SVG 1.1//EN" "http://www.w3.org/Graphics/SVG/1.1/DTD/svg11.dtd">
<svg version="1.1" id="Layer_1" xmlns="http://www.w3.org/2000/svg" xmlns:xlink="http://www.w3.org/1999/xlink" x="0px" y="0px"
	 width="600.04px" height="174.742px" viewBox="-305.5 396.5 600.04 174.742" enable-background="new -305.5 396.5 600.04 174.742"
	 xml:space="preserve">
<path d="M272.313,571.242h-555.59c-12.217,0-22.224-9.834-22.224-21.842V418.342c0-12.008,10.006-21.842,22.224-21.842h555.59
	c12.217,0,22.226,9.834,22.226,21.842v131.06C294.538,561.408,284.532,571.242,272.313,571.242z"/>
<path fill="#FFFFFF" stroke="#FFFFFF" stroke-width="0.16" stroke-miterlimit="10" d="M-93.005,439.194
	c0,3.647-1.104,6.567-3.281,8.748c-2.504,2.584-5.764,3.883-9.758,3.883c-3.817,0-7.078-1.319-9.752-3.926
	c-2.68-2.644-4.017-5.888-4.017-9.771c0-3.886,1.337-7.128,4.017-9.748c2.674-2.627,5.935-3.946,9.752-3.946
	c1.9,0,3.713,0.389,5.441,1.104c1.725,0.729,3.128,1.711,4.145,2.925l-2.31,2.306c-1.773-2.07-4.188-3.093-7.276-3.093
	c-2.784,0-5.198,0.961-7.249,2.897c-2.027,1.942-3.045,4.461-3.045,7.554c0,3.092,1.018,5.631,3.045,7.571
	c2.051,1.918,4.465,2.899,7.249,2.899c2.955,0,5.441-0.983,7.403-2.922c1.293-1.282,2.026-3.054,2.221-5.313h-9.624v-3.158h12.841
	C-93.05,437.894-93.005,438.556-93.005,439.194z M-72.635,428.251h-12.062v8.302h10.873v3.153h-10.873v8.302h12.062v3.218h-15.477
	v-26.189h15.477V428.251z M-58.258,451.224h-3.415v-22.976h-7.396v-3.217h18.217v3.217h-7.403L-58.258,451.224L-58.258,451.224z
	 M-37.672,451.224v-26.188h3.409v26.188H-37.672z M-19.152,451.224h-3.388v-22.976h-7.426v-3.217h18.238v3.217h-7.427
	L-19.152,451.224L-19.152,451.224z M22.761,447.854c-2.613,2.647-5.852,3.971-9.713,3.971c-3.886,0-7.122-1.321-9.735-3.971
	c-2.606-2.644-3.905-5.888-3.905-9.728c0-3.841,1.299-7.082,3.905-9.728c2.613-2.646,5.852-3.972,9.735-3.972
	c3.84,0,7.076,1.319,9.689,3.992c2.63,2.666,3.929,5.887,3.929,9.702C26.666,441.968,25.368,445.212,22.761,447.854L22.761,447.854z
	 M5.836,445.659c1.968,1.961,4.358,2.943,7.211,2.943c2.828,0,5.242-0.982,7.188-2.943c1.962-1.959,2.955-4.479,2.955-7.528
	c0-3.054-0.993-5.569-2.955-7.531c-1.944-1.959-4.358-2.942-7.188-2.942c-2.853,0-5.243,0.983-7.211,2.942
	c-1.962,1.962-2.955,4.479-2.955,7.531C2.881,441.181,3.875,443.7,5.836,445.659L5.836,445.659z M31.457,451.224v-26.188h4.145
	l12.886,20.369h0.148l-0.148-5.035v-15.334h3.408v26.188h-3.56l-13.491-21.372h-0.148l0.148,5.057v16.316L31.457,451.224
	L31.457,451.224z"/>
<path fill="#FFFFFF" d="M-1.433,489.472c-10.382,0-18.863,7.81-18.863,18.582c0,10.688,8.481,18.578,18.863,18.578
	c10.402,0,18.884-7.894,18.884-18.578C17.451,497.28,8.971,489.472-1.433,489.472z M-1.433,519.313
	c-5.696,0-10.599-4.646-10.599-11.261c0-6.698,4.9-11.267,10.599-11.267c5.694,0,10.617,4.563,10.617,11.267
	C9.185,514.669,4.263,519.313-1.433,519.313z M-42.589,489.472c-10.403,0-18.861,7.81-18.861,18.582
	c0,10.688,8.458,18.578,18.861,18.578c10.397,0,18.862-7.894,18.862-18.578C-23.727,497.28-32.191,489.472-42.589,489.472z
	 M-42.589,519.313c-5.702,0-10.619-4.646-10.619-11.261c0-6.698,4.917-11.267,10.619-11.267c5.696,0,10.598,4.563,10.598,11.267
	C-31.993,514.669-36.893,519.313-42.589,519.313z M-91.563,495.167v7.896h19.077c-0.559,4.411-2.05,7.655-4.337,9.916
	c-2.783,2.729-7.122,5.762-14.74,5.762c-11.74,0-20.936-9.365-20.936-20.969c0-11.605,9.193-20.972,20.936-20.972
	c6.349,0,10.968,2.453,14.377,5.631l5.63-5.563c-4.77-4.498-11.111-7.955-20.007-7.955c-16.102,0-29.632,12.945-29.632,28.859
	c0,15.912,13.53,28.858,29.632,28.858c8.701,0,15.237-2.817,20.377-8.104c5.266-5.203,6.905-12.521,6.905-18.431
	c0-1.834-0.154-3.521-0.432-4.933h-26.851L-91.563,495.167L-91.563,495.167z M108.698,501.288
	c-1.554-4.153-6.344-11.815-16.101-11.815c-9.669,0-17.72,7.53-17.72,18.584c0,10.408,7.968,18.576,18.646,18.576
	c8.637,0,13.619-5.203,15.669-8.233l-6.408-4.222c-2.139,3.09-5.051,5.14-9.261,5.14c-4.183,0-7.183-1.896-9.104-5.632l25.146-10.28
	L108.698,501.288L108.698,501.288z M83.061,507.475c-0.216-7.163,5.63-10.834,9.816-10.834c3.282,0,6.066,1.621,6.995,3.94
	L83.061,507.475z M62.624,525.503h8.267v-54.606h-8.267V525.503z M49.086,493.61h-0.275c-1.855-2.174-5.397-4.14-9.885-4.14
	c-9.414,0-18.021,8.168-18.021,18.644c0,10.414,8.607,18.521,18.021,18.521c4.485,0,8.027-1.981,9.885-4.224h0.275v2.666
	c0,7.104-3.84,10.92-10.032,10.92c-5.052,0-8.184-3.604-9.477-6.635l-7.188,2.967c2.071,4.927,7.56,10.984,16.664,10.984
	c9.689,0,17.867-5.636,17.867-19.347v-33.364h-7.835L49.086,493.61L49.086,493.61z M39.635,519.313
	c-5.696,0-10.466-4.711-10.466-11.199c0-6.547,4.77-11.324,10.466-11.324c5.612,0,10.038,4.777,10.038,11.324
	C49.672,514.603,45.248,519.313,39.635,519.313z M147.394,470.894h-19.77v54.605h8.243v-20.69h11.524
	c9.155,0,18.135-6.547,18.135-16.961C165.528,477.44,156.527,470.894,147.394,470.894z M147.61,497.214H135.87v-18.728h11.741
	c6.153,0,9.669,5.053,9.669,9.358C157.279,492.075,153.765,497.214,147.61,497.214z M198.566,489.366
	c-5.955,0-12.148,2.603-14.695,8.361l7.314,3.028c1.574-3.028,4.471-4.015,7.53-4.015c4.275,0,8.612,2.539,8.68,7.021v0.573
	c-1.49-0.854-4.687-2.112-8.612-2.112c-7.879,0-15.906,4.285-15.906,12.285c0,7.315,6.453,12.03,13.707,12.03
	c5.548,0,8.607-2.477,10.531-5.354h0.28v4.222h7.962V504.46C215.357,494.784,208.042,489.366,198.566,489.366L198.566,489.366z
	 M197.574,519.294c-2.696,0-6.453-1.321-6.453-4.625c0-4.229,4.686-5.852,8.74-5.852c3.63,0,5.331,0.793,7.535,1.836
	C206.749,515.712,202.347,519.294,197.574,519.294z M244.365,490.563l-9.476,23.672h-0.282l-9.796-23.672h-8.891l14.72,33.082
	l-8.397,18.407h8.613l22.681-51.489H244.365L244.365,490.563z M170.058,525.503h8.267v-54.606h-8.267V525.503z"/>
<linearGradient id="SVGID_1_" gradientUnits="userSpaceOnUse" x1="-45.0913" y1="343.6689" x2="-61.8736" y2="360.4512" gradientTransform="matrix(4.42 0 0 -4.3686 -6.9409 2032.4908)">
	<stop  offset="0" style="stop-color:#00A0FF"/>
	<stop  offset="0.0066" style="stop-color:#00A1FF"/>
	<stop  offset="0.2601" style="stop-color:#00BEFF"/>
	<stop  offset="0.5122" style="stop-color:#00D2FF"/>
	<stop  offset="0.7604" style="stop-color:#00DFFF"/>
	<stop  offset="1" style="stop-color:#00E3FF"/>
</linearGradient>
<path fill="url(#SVGID_1_)" d="M-256.468,427.378c-1.299,1.345-2.05,3.438-2.05,6.145v96.612c0,2.707,0.751,4.799,2.05,6.144
	l0.32,0.295l54.773-54.115v-1.276l-54.773-54.116L-256.468,427.378z"/>
<linearGradient id="SVGID_2_" gradientUnits="userSpaceOnUse" x1="-33.0566" y1="354.96" x2="-57.2488" y2="354.96" gradientTransform="matrix(4.42 0 0 -4.3686 -6.9409 2032.4908)">
	<stop  offset="0" style="stop-color:#FFE000"/>
	<stop  offset="0.4087" style="stop-color:#FFBD00"/>
	<stop  offset="0.7754" style="stop-color:#FFA500"/>
	<stop  offset="1" style="stop-color:#FF9C00"/>
</linearGradient>
<path fill="url(#SVGID_2_)" d="M-183.135,500.503l-18.238-18.049v-1.276l18.261-18.047l0.409,0.231l21.625,12.162
	c6.172,3.45,6.172,9.129,0,12.604l-21.625,12.14L-183.135,500.503z"/>
<linearGradient id="SVGID_3_" gradientUnits="userSpaceOnUse" x1="-50.4067" y1="348.9111" x2="-73.1692" y2="371.6737" gradientTransform="matrix(4.42 0 0 -4.3686 -6.9409 2032.4908)">
	<stop  offset="0" style="stop-color:#FF3A44"/>
	<stop  offset="1" style="stop-color:#C31162"/>
</linearGradient>
<path fill="url(#SVGID_3_)" d="M-182.704,500.268l-18.67-18.451l-55.096,54.461c2.05,2.129,5.394,2.387,9.192,0.256
	L-182.704,500.268L-182.704,500.268z"/>
<linearGradient id="SVGID_4_" gradientUnits="userSpaceOnUse" x1="-67.9258" y1="343.4854" x2="-57.7666" y2="353.6443" gradientTransform="matrix(4.42 0 0 -4.3686 -6.9409 2032.4908)">
	<stop  offset="0" style="stop-color:#32A071"/>
	<stop  offset="0.0685" style="stop-color:#2DA771"/>
	<stop  offset="0.4762" style="stop-color:#15CF74"/>
	<stop  offset="0.8009" style="stop-color:#06E775"/>
	<stop  offset="1" style="stop-color:#00F076"/>
</linearGradient>
<path fill="url(#SVGID_4_)" d="M-182.704,463.364l-64.57-36.267c-3.802-2.106-7.146-1.853-9.193,0.279l55.096,54.438
	L-182.704,463.364z"/>
</svg>
